# xmcd
#
# Track frame offsets:
#	150
#	14110
#	25405
#	36960
#	44252
#	55697
#	66030
#	76122
#	85470
#	98365
#	113230
#	123652
#	136465
#	145072
#	157757
#	168345
#	181305
#	194072
#	207780
#	217327
#
# Disc length: 3013 seconds
#
# Revision: 1
# Processed by: cddbd v1.5.2PL0 Copyright (c) Steve Scherf et al.
# Submitted via: audiograbber 1.83.01
#
DISCID=1c0bc314
DTITLE=Various Artist - Kings Of Country
DYEAR=1900
DGENRE=Country
TTITLE0=Willie Nelson - Home Is Where You're Happy
TTITLE1=Waylon Jennings - Sally Was A Good Old Girl
TTITLE2=George Jones - I Can't Change Overnight
TTITLE3=Conway Twitty - Treat Me Mean, Treat Me Cruel
TTITLE4=Johnny Paycheck - I Don't Need To Know That Right Now
TTITLE5=Carl Perkins - Daddy Sang Bass
TTITLE6=Don Williams - Take My Hand For A While
TTITLE7=Faron Young - I Can't Help It If I'm Still In Love
TTITLE8=Freddy Fender - Silver Wings
TTITLE9=Willie Nelson - And So Will You My Love
TTITLE10=Waylon Jennings - White Lightnin'
TTITLE11=George Jones - A Girl I Used To Know
TTITLE12=George Jones - Blue Is The Way I Used To Feel When You're Gone
TTITLE13=Johnny Paycheck - Georgia In A Jug
TTITLE14=Carl Perkins - What Am I Living For
TTITLE15=Don Williams - Where Do We Go From Here
TTITLE16=Faron Young - I Fall To Pieces
TTITLE17=Freddy Fender - Baby I Want To Love You
TTITLE18=Willie Nelson - Building Heartaches
TTITLE19=Waylon Jennings - Love's Gonna Live Here
EXTD=
EXTT0=
EXTT1=
EXTT2=
EXTT3=
EXTT4=
EXTT5=
EXTT6=
EXTT7=
EXTT8=
EXTT9=
EXTT10=
EXTT11=
EXTT12=
EXTT13=
EXTT14=
EXTT15=
EXTT16=
EXTT17=
EXTT18=
EXTT19=
PLAYORDER=
